<svg id="Layer_1" data-name="Layer 1" xmlns="http://www.w3.org/2000/svg" viewBox="0 0 152 189"><defs><style>.cls-1{fill:#ebefe4;}.cls-2{fill:#79be00;}</style></defs><path class="cls-1" d="M14.8,186A10.81,10.81,0,0,1,4,175.2V29H147.5V186Z"/><path class="cls-2" d="M145,31.5v152H14.8a8.31,8.31,0,0,1-8.3-8.3V31.5H145m5-5H1.5V175.2a13.29,13.29,0,0,0,13.3,13.3H150V26.5Z"/><path class="cls-1" d="M4,14C4,8.5,9,4,15.17,4H136.58V159H16.18c-5.62,0-9.53,2.07-12.18,4.94Z"/><path class="cls-2" d="M134.08,6.5v150H16.18a19.46,19.46,0,0,0-9.68,2.37V14c0-4.15,3.89-7.52,8.67-7.52H134.08m5-5H15.17C7.62,1.5,1.5,7.11,1.5,14V177.5s0-16,14.68-16h122.9V1.5Z"/></svg>