<svg id="Layer_1" data-name="Layer 1" xmlns="http://www.w3.org/2000/svg" viewBox="0 0 32 31"><defs><style>.cls-1{fill:#f2a700;}.cls-2{fill:#ccc;}</style></defs><polygon class="cls-1" points="16 24.83 6.9 29.62 8.63 19.48 1.27 12.3 11.45 10.82 16 1.6 20.55 10.82 30.73 12.3 23.36 19.48 25.1 29.62 16 24.83"/><path class="cls-2" d="M16,2.73l4,8.08.23.47.52.07,8.92,1.3L23.2,18.94l-.37.37.09.51,1.52,8.88-8-4.19L16,24.27l-.47.24-8,4.19,1.52-8.88.09-.51-.37-.37L2.34,12.65l8.92-1.3.52-.07.23-.47,4-8.08M16,.47l-4.88,9.89L.2,12l7.9,7.7L6.23,30.53,16,25.4l9.77,5.13L23.9,19.65,31.8,12,20.88,10.36,16,.47Z"/></svg>