<svg id="Layer_1" data-name="Layer 1" xmlns="http://www.w3.org/2000/svg" viewBox="0 0 161 125"><defs><style>.cls-1{fill:#79be00;}.cls-2{fill:none;stroke:#79be00;stroke-linecap:round;stroke-miterlimit:10;stroke-width:5px;}</style></defs><path class="cls-1" d="M42.62,6.14a60,60,0,0,1,31,8.93,14.39,14.39,0,0,0,7.35,2,14.81,14.81,0,0,0,7.27-1.93,64.38,64.38,0,0,1,31.35-8.6C131,6.56,142.11,10,152.69,16.8A4.86,4.86,0,0,1,155,20.87V108.7a4.63,4.63,0,0,1-6.32,4.37,74.57,74.57,0,0,0-27-4.9c-17.5,0-32.5,5.62-40.21,9.15l0,0-.07,0-.7-.39a73.47,73.47,0,0,0-36-9.1,97.33,97.33,0,0,0-32.22,5.86A4.54,4.54,0,0,1,11,114a4.74,4.74,0,0,1-4.62-4.74V20.35a4.61,4.61,0,0,1,2.11-3.92C14.49,12.59,27,6.14,42.62,6.14h0m0-5C25.75,1.14,12.34,8,5.76,12.21a9.63,9.63,0,0,0-4.43,8.14v88.86A9.73,9.73,0,0,0,11,119a9.38,9.38,0,0,0,3.18-.55,91.52,91.52,0,0,1,30.53-5.57,68.44,68.44,0,0,1,33.6,8.48s.8,1.89,2.17,1.89a1.64,1.64,0,0,0,.76-.19.57.57,0,0,0,.29.08,2.82,2.82,0,0,0,1.59-1c7.16-3.34,21.67-8.93,38.64-8.93a69.44,69.44,0,0,1,25.17,4.57,9.64,9.64,0,0,0,13.12-9V20.87a9.88,9.88,0,0,0-4.6-8.27c-12.77-8.21-25-11-35.82-11a69.56,69.56,0,0,0-33.82,9.25A9.7,9.7,0,0,1,81,12.09a9.35,9.35,0,0,1-4.79-1.32A64.74,64.74,0,0,0,42.62,1.14Z"/><circle class="cls-1" cx="58" cy="50" r="8"/><circle class="cls-1" cx="102" cy="50" r="8"/><path class="cls-2" d="M49,80s14.5,7.5,31.5,7.5c18,0,34.5-7.5,34.5-7.5"/></svg>